<svg width="1488" height="1760" viewBox="0 0 1488 1760" fill="none" xmlns="http://www.w3.org/2000/svg">
<g clip-path="url(#clip0_1_29)">
<path d="M824.772 101.016C817.272 105.016 798.772 114.416 784.772 120.016C784.438 120.182 783.172 120.716 780.772 121.516C777.772 122.516 769.272 125.016 764.772 127.516C760.272 130.016 756.272 130.016 750.772 132.516C745.272 135.016 731.772 136.016 723.272 137.516C714.772 139.016 700.772 138.016 697.772 136.016C694.772 134.016 678.272 131.016 677.272 133.016C676.272 135.016 660.772 136.016 653.772 138.516C646.772 141.016 631.272 135.016 628.272 132.516C625.272 130.016 613.272 130.016 609.272 133.516C605.272 137.016 590.772 138.516 587.772 141.516C584.772 144.516 571.272 141.516 565.272 139.016C559.272 136.516 552.272 139.016 543.772 139.516C535.272 140.016 530.272 143.016 524.772 144.016C519.272 145.016 513.272 150.516 508.772 153.016C504.272 155.516 501.772 160.016 497.772 163.516C493.772 167.016 496.272 177.016 496.272 184.016C496.272 191.016 503.272 194.016 508.772 197.516C514.272 201.016 526.772 201.516 532.272 201.016C537.772 200.516 545.272 203.016 548.272 206.016C551.272 209.016 550.272 211.516 554.272 216.516C558.272 221.516 570.272 220.016 580.772 220.516C591.272 221.016 589.772 228.016 588.772 233.516C587.772 239.016 597.772 240.516 602.772 242.016C607.772 243.516 611.272 249.016 611.772 252.516C612.272 256.016 611.772 258.016 613.272 262.016C614.772 266.016 617.272 268.516 613.272 272.516C609.272 276.516 609.272 278.516 608.772 289.516C608.272 300.516 612.272 312.016 612.272 325.516C612.272 339.016 621.272 342.016 627.272 344.516C633.272 347.016 644.272 351.016 654.772 358.516C665.272 366.016 663.272 367.516 661.272 371.516C659.272 375.516 658.272 383.516 660.272 388.016C662.272 392.516 665.772 402.016 666.272 408.516C666.772 415.016 659.772 432.516 655.272 445.516C650.772 458.516 657.772 459.516 657.772 459.016C657.772 458.516 661.272 456.516 666.772 454.516C672.272 452.516 668.772 450.016 665.772 447.516C662.772 445.016 668.772 442.016 671.772 440.516C674.772 439.016 674.772 437.516 674.272 436.516C673.772 435.516 672.772 433.016 674.772 433.016C676.772 433.016 676.772 431.016 676.272 429.016C675.772 427.016 676.272 426.516 677.772 426.016C679.272 425.516 678.272 422.516 677.772 421.016C677.272 419.516 677.272 417.516 678.772 416.516C680.272 415.516 679.272 413.516 678.272 412.016C677.272 410.516 677.272 408.516 678.772 408.016C680.272 407.516 680.272 407.016 680.772 403.016C681.272 399.016 687.272 401.016 687.272 403.516C687.272 406.016 687.272 407.016 689.272 408.516C691.272 410.016 689.772 411.516 688.772 414.016C687.772 416.516 689.272 419.516 690.272 421.516C691.272 423.516 690.772 425.516 690.772 429.016C690.772 432.516 693.272 431.516 693.272 433.016C693.272 434.516 690.772 436.516 698.772 439.016C706.772 441.516 701.272 444.516 697.772 447.516C694.272 450.516 699.772 451.016 705.272 453.516C710.772 456.016 707.772 459.516 708.272 459.016C708.772 458.516 711.272 457.516 715.272 454.516C719.272 451.516 722.772 450.016 732.772 445.016C742.772 440.016 742.772 443.016 750.772 443.516C758.772 444.016 762.772 445.016 767.272 447.516C771.772 450.016 773.272 450.516 776.772 449.016C780.272 447.516 786.272 446.016 795.272 445.516C804.272 445.016 804.772 450.516 805.772 456.516C806.772 462.516 810.272 466.016 814.272 466.516C818.272 467.016 824.272 468.016 833.272 470.016C842.272 472.016 852.772 475.016 862.772 479.516C872.772 484.016 879.272 482.516 885.772 483.016C892.272 483.516 895.272 482.516 902.272 486.516C909.272 490.516 907.772 489.516 911.772 488.016C915.772 486.516 920.272 489.516 925.772 490.516C931.272 491.516 938.772 495.016 943.772 500.516C948.724 505.963 949.752 503.563 951.229 500.116L951.272 500.016C952.772 496.516 956.772 495.516 960.772 496.016C964.772 496.516 973.272 499.516 980.772 504.016C988.272 508.516 986.772 502.516 988.772 499.516C990.772 496.516 995.272 494.016 1001.77 494.016C1008.27 494.016 1014.27 494.516 1022.77 497.516C1031.27 500.516 1032.77 495.516 1038.27 490.016C1043.77 484.516 1054.77 485.016 1060.27 485.016C1065.77 485.016 1071.77 485.516 1076.77 487.516C1081.77 489.516 1083.27 491.516 1085.27 490.516C1087.27 489.516 1090.27 489.516 1092.77 491.016C1095.27 492.516 1097.27 497.016 1103.77 497.516C1110.27 498.016 1108.77 498.016 1116.27 500.516C1123.77 503.016 1123.77 496.516 1124.27 493.516C1124.77 490.516 1126.77 479.016 1130.77 475.516C1134.77 472.016 1142.27 468.016 1149.77 469.016C1157.27 470.016 1156.27 471.516 1159.27 464.516C1161.67 458.916 1169.6 460.516 1173.27 462.016C1173.44 456.016 1173.67 443.016 1173.27 439.016C1172.77 434.016 1160.77 425.516 1151.27 419.516C1141.77 413.516 1143.27 409.516 1143.27 396.516C1143.27 383.516 1143.27 378.516 1142.27 372.516C1141.27 366.516 1128.77 357.516 1126.77 355.516C1124.77 353.516 1107.27 341.016 1103.27 338.516C1099.27 336.016 1089.77 330.016 1086.77 320.516C1083.77 311.016 1076.77 303.516 1075.27 301.516C1073.77 299.516 1060.27 289.516 1050.77 283.516C1041.27 277.516 1039.77 268.016 1039.77 255.516C1039.77 243.016 1029.77 238.016 1028.27 236.016C1026.77 234.016 1006.77 226.016 1001.27 221.016C995.772 216.016 996.272 206.016 994.772 204.516C993.272 203.016 992.772 188.516 993.272 185.516C993.772 182.516 990.272 173.516 987.772 164.516C985.272 155.516 970.272 155.016 962.772 155.016C955.272 155.016 947.772 143.016 947.772 138.516C947.772 134.016 942.772 123.516 940.772 120.516C938.772 117.516 929.772 105.016 928.772 94.5157C927.772 84.0157 920.772 78.0157 918.272 75.0157C915.772 72.0157 902.272 64.5157 894.772 59.5157C887.272 54.5158 878.272 50.0158 868.272 49.5158C858.272 49.0158 855.772 60.5158 854.772 66.5158C853.772 72.5158 852.772 78.0158 848.772 84.0158C845.572 88.8158 831.438 97.3491 824.772 101.016Z" stroke="black"/>
</g>
<g clip-path="url(#clip1_1_29)">
<path d="M470.375 166.064C471.575 166.864 475.542 170.397 477.375 172.064C477.375 174.564 477.275 180.164 476.875 182.564C476.375 185.564 480.375 188.064 481.375 190.564C482.375 193.064 482.375 208.564 482.375 212.564C482.375 216.564 479.875 222.064 478.875 224.564C477.875 227.064 471.375 231.064 468.875 232.064C466.375 233.064 464.875 233.064 464.375 234.564C463.875 236.064 464.375 261.064 464.375 263.064C464.375 265.064 464.875 277.564 465.375 280.564C465.875 283.564 470.875 286.064 472.375 288.064C473.875 290.064 473.375 293.064 473.875 294.064C474.375 295.064 473.875 297.564 471.875 299.564C469.875 301.564 471.875 303.564 473.375 306.564C474.875 309.564 473.875 312.064 471.875 316.064C469.875 320.064 466.875 318.064 467.375 322.564C467.875 327.064 469.875 325.064 470.875 325.064C471.875 325.064 476.875 321.564 478.375 320.564C479.875 319.564 487.875 319.564 489.875 321.064C491.875 322.564 494.375 324.064 496.875 324.064C499.375 324.064 507.375 322.564 510.875 322.564C514.375 322.564 514.375 336.064 512.375 343.564C510.375 351.064 510.375 354.564 522.375 354.564C534.375 354.564 536.875 362.064 537.375 367.064C537.875 372.064 530.875 377.564 526.375 381.564C521.875 385.564 524.375 393.064 524.375 395.564C524.375 398.064 520.375 403.564 517.875 405.064C515.375 406.564 514.875 409.564 513.875 411.064C512.875 412.564 489.875 421.064 482.375 423.564C474.875 426.064 469.375 425.064 464.875 423.064C461.275 421.464 459.708 416.731 459.375 414.564C459.208 414.564 458.275 414.764 455.875 415.564C452.875 416.564 425.875 426.564 420.375 423.064C414.875 419.564 417.375 420.564 405.875 421.564C394.375 422.564 392.375 419.564 391.375 414.564C390.375 409.564 388.875 410.064 385.875 411.064C382.875 412.064 368.875 413.564 364.375 411.064C359.875 408.564 361.875 403.064 362.375 397.564C362.875 392.064 367.875 384.064 361.375 383.064C354.875 382.064 348.375 375.564 347.875 374.564C347.375 373.564 347.375 365.064 347.875 363.064C348.375 361.064 349.375 359.564 351.875 357.064C354.375 354.564 363.375 348.064 369.375 347.564C375.375 347.064 378.875 350.064 381.875 350.564C384.875 351.064 389.375 348.064 393.375 348.064C397.375 348.064 409.375 347.064 410.375 345.064C411.375 343.064 412.875 337.564 421.375 332.064C429.875 326.564 434.375 325.564 436.875 325.564C439.375 325.564 439.875 323.564 438.875 322.564C437.875 321.564 432.875 314.564 432.875 313.064C432.875 311.564 431.375 308.064 433.375 306.564C435.375 305.064 435.375 304.064 434.875 301.564C434.375 299.064 432.375 296.064 432.375 292.064C432.375 288.064 434.875 285.064 438.875 283.564C442.875 282.064 441.375 279.564 441.875 278.564C442.375 277.564 441.875 247.564 441.875 246.064C441.875 244.564 441.375 235.564 441.875 234.064C442.375 232.564 435.375 230.064 430.375 227.564C425.375 225.064 424.875 219.064 424.375 216.564C423.875 214.064 424.375 209.064 424.375 207.564V200.564C424.375 198.064 425.375 192.564 425.875 190.564C426.375 188.564 429.875 186.064 430.375 185.064C430.875 184.064 430.875 180.564 430.375 176.564C429.875 172.564 432.875 171.064 434.375 169.564C435.875 168.064 437.375 168.064 437.875 164.564C438.375 161.064 442.875 161.064 443.375 159.064C443.875 157.064 442.875 148.064 443.875 148.064C444.875 148.064 445.875 147.564 445.875 140.564C445.875 133.564 446.875 132.064 446.875 130.064C446.875 128.064 447.875 118.064 448.375 116.064C448.875 114.064 448.375 103.064 448.875 101.064C449.375 99.0641 447.375 97.5641 446.875 96.0641C446.375 94.5641 447.375 91.0641 448.375 91.5641C449.375 92.0641 449.375 90.0642 449.375 87.0643V77.5641C449.375 76.5641 449.375 74.5641 448.375 73.0641C447.375 71.564 450.875 69.5641 451.375 67.5641C451.875 65.564 452.375 54.5641 452.375 52.5641C452.375 50.564 453.875 51.5641 454.375 50.5641C454.875 49.5641 454.375 42.5641 454.375 40.0641C454.375 37.5641 454.875 36.5641 455.375 38.5641C455.875 40.5641 455.375 45.5641 455.375 49.0641C455.375 52.5641 456.375 51.5641 456.375 52.5641V67.5641C456.375 72.0641 457.875 71.0641 457.875 73.0641C457.875 75.0641 456.375 75.5641 456.375 76.0641V83.0641C456.375 85.5641 455.875 91.5641 456.875 92.0641C457.875 92.5641 458.375 92.0641 458.875 94.5641C459.375 97.0641 457.875 98.5641 457.375 99.5641C456.875 100.564 457.875 107.064 457.875 112.564C457.875 118.064 459.875 121.564 460.375 124.064C460.875 126.564 459.875 127.064 459.875 129.564C459.875 132.064 460.375 146.564 460.875 147.064C461.375 147.564 462.375 148.064 462.375 149.064C462.375 150.064 461.875 159.064 462.875 159.064C463.875 159.064 467.375 160.064 468.375 162.064C469.375 164.064 468.875 165.064 470.375 166.064Z" stroke="black"/>
</g>
<g clip-path="url(#clip2_1_29)">
<path d="M532 548.148C529.833 546.481 524.1 543.048 518.5 542.648C511.5 542.148 501 540.648 496.5 538.648C492 536.648 484.5 532.148 482 530.148C479.5 528.148 474 526.148 468 525.648C462 525.148 455 526.648 448 529.648C441 532.648 431.5 538.648 425 540.148C418.5 541.648 416 540.648 409.5 540.648C403 540.648 390 543.648 386.5 545.648C383 547.648 378.5 549.148 372 545.148C365.5 541.148 363 537.648 357.5 537.648C352 537.648 350 533.648 350 529.648C350 525.648 351 520.648 348 516.648C345 512.648 341 505.148 339 501.648C337 498.148 330 493.648 328 490.648C326 487.648 322.5 482.148 321 478.148C319.5 474.148 315 466.648 312 462.148C309 457.648 306.5 451.648 306 450.148C305.5 448.648 296.5 453.148 294.5 442.648C292.5 432.148 282 425.148 279 423.148C276 421.148 269.5 424.148 266.5 427.148C263.5 430.148 257.5 435.148 248 436.148C238.5 437.148 230.5 439.648 222 438.648C213.5 437.648 201 439.648 197.5 442.148C194 444.648 187.5 453.148 187.5 456.148C187.5 459.148 187 465.648 187 469.148C187 472.648 187 505.648 187 510.648C187 515.648 188.5 517.648 191.5 519.648C194.5 521.648 201 528.648 206.5 528.148C210.9 527.748 216.333 527.648 218.5 527.648C216.667 530.314 213 536.548 213 540.148C213 544.648 213 545.648 208 545.148C203 544.648 195 541.648 192.5 540.148C190 538.648 182.5 536.148 176.5 540.648C170.5 545.148 161.5 558.648 159.5 561.648C157.5 564.648 154 570.648 153 576.648C152 582.648 151.5 594.648 151.5 599.648C151.5 604.648 151.5 643.148 151.5 644.648C151.5 646.148 153.5 651.148 155.5 653.148C157.5 655.148 162 660.148 164 661.148C166 662.148 169.5 665.648 172 666.648C174 667.448 175.5 667.648 176 667.648C176 670.648 176 677.048 176 678.648C176 680.648 178 681.648 178 684.148C178 686.648 179 695.148 181 696.148C183 697.148 184.5 700.148 184.5 702.148C184.5 704.148 185.5 762.148 188 765.148C190.5 768.148 200.5 775.148 204.5 777.148C208.5 779.148 216 786.648 218 787.648C220 788.648 226 791.648 226.5 791.148C227 790.648 227 795.648 227 800.148C227 804.648 227 821.148 230 823.148C233 825.148 237 828.148 239 828.148C241 828.148 241.5 830.648 241 833.148C240.5 835.648 242.5 839.648 244 841.148C245.5 842.648 246 845.148 248 841.148C250 837.148 253.5 831.148 253.5 830.148C253.5 829.148 255 823.148 259 821.648C263 820.148 272 818.148 275 817.648C278 817.148 286 817.148 290 819.148C294 821.148 306.5 826.648 308 826.148C309.5 825.648 316.5 820.648 319 817.148C321.5 813.648 328.5 806.648 331.5 806.648C334.5 806.648 347.5 800.648 350 799.648C352.5 798.648 360 794.148 362 792.648C364 791.148 368 787.648 372 786.648C376 785.648 383 784.648 387.5 785.148C392 785.648 395.5 786.148 399 790.148C402.5 794.148 403 798.648 402.5 803.648C402 808.648 401 814.148 405.5 814.148C410 814.148 414 814.148 418.5 816.148C423 818.148 429 818.148 430 817.148C431 816.148 441 805.148 442.5 804.148C444 803.148 447.5 799.648 451.5 799.148C455.5 798.648 457.5 796.648 458.5 799.148C459.5 801.648 459 808.148 459.5 808.148C460 808.148 463 804.148 463.5 802.648C464 801.148 465.5 797.148 466.5 796.648C467.5 796.148 473 791.648 479 794.648C485 797.648 493 802.648 495.5 807.148C498 811.648 500.5 817.148 500.5 818.148C500.5 819.148 500 821.648 503.5 819.148C507 816.648 511.5 812.648 514 814.148C516.5 815.648 519.5 820.648 521.5 826.148C523.5 831.648 526 837.648 533.5 837.648C541 837.648 549.5 835.148 554.5 836.148C559.5 837.148 563.5 837.648 566 838.648C568.5 839.648 571 839.148 572 836.648C573 834.148 580 824.648 581.5 823.648C583 822.648 585.5 820.148 588.5 819.148C591.5 818.148 595.5 815.648 599.5 815.648C603.5 815.648 607 816.648 609 816.648C611 816.648 611 816.648 613 820.648C615 824.648 616 825.648 615.5 825.148C615 824.648 613.5 809.148 612 804.148C610.5 799.148 609 793.648 601.5 784.648C594 775.648 595 768.648 596 767.648C597 766.648 597.5 762.648 598.5 762.148C599.5 761.648 609.5 756.648 610.5 754.648C611.5 752.648 611 751.148 608.5 748.148C606 745.148 600 735.648 597 734.148C594 732.648 589.5 730.648 574.5 722.648C559.5 714.648 551 703.148 546 699.648C541 696.148 531.5 688.648 530 685.148C528.5 681.648 523.5 663.648 523.5 662.148C523.5 660.648 521.5 650.148 520.5 643.148C519.5 636.148 518.5 630.148 521.5 626.648C524.5 623.148 528.5 618.648 531 617.648C533.5 616.648 543 612.148 544 610.148C545 608.148 545.5 609.148 544.5 604.648C543.5 600.148 543 595.648 544 589.148C545 582.648 547 574.148 547.5 572.148C548 570.148 547.5 569.148 544 567.648C540.5 566.148 533 562.648 531 559.648C529 556.648 528.5 554.648 530 552.148C531.2 550.148 531.833 548.648 532 548.148Z" stroke="black"/>
</g>
<g clip-path="url(#clip3_1_29)">
<path d="M611.865 803.371C612.665 806.571 614.532 819.038 615.365 824.871C616.532 827.371 619.365 832.671 621.365 833.871C623.865 835.371 632.865 834.871 636.365 834.871C639.865 834.871 643.365 833.371 644.865 832.871C646.365 832.371 652.365 830.871 656.865 830.371C661.365 829.871 662.865 832.371 665.865 834.371C668.265 835.971 668.865 838.371 668.865 839.371C669.032 838.871 669.565 837.671 670.365 836.871C671.365 835.871 673.865 836.371 678.365 834.871C682.865 833.371 685.865 833.871 689.365 833.371C692.865 832.871 692.365 829.871 691.865 823.871C691.365 817.871 691.865 814.371 691.865 811.371C691.865 808.371 693.865 806.371 695.365 805.371C696.865 804.371 706.365 800.371 708.865 798.871C711.365 797.371 712.865 794.871 713.365 792.871C713.865 790.871 717.865 786.871 719.365 785.871C720.865 784.871 719.865 783.871 719.365 778.871C718.865 773.871 718.865 773.371 720.865 769.371C722.865 765.371 724.865 765.371 726.865 760.871C728.865 756.371 726.365 754.871 723.365 750.871C720.365 746.871 714.865 742.371 711.865 739.871C708.865 737.371 707.365 735.871 705.365 732.871C703.365 729.871 700.865 732.371 694.865 735.871C688.865 739.371 687.865 737.371 686.365 735.871C684.865 734.371 684.365 731.371 684.365 729.871V719.371C684.365 718.371 681.865 712.371 681.865 710.371C681.865 708.371 686.365 701.871 687.365 697.871C688.365 693.871 686.865 693.871 683.365 687.871C679.865 681.871 679.365 679.871 679.865 677.871C680.365 675.871 682.865 673.371 684.865 671.371C686.865 669.371 682.865 666.371 678.865 662.371C674.865 658.371 671.365 657.371 666.865 654.371C662.365 651.371 664.365 652.871 663.865 647.871C663.365 642.871 666.865 639.871 668.365 637.871C669.865 635.871 674.865 632.871 675.865 632.371C676.865 631.871 684.865 627.871 690.865 627.871C696.865 627.871 696.865 628.371 698.865 628.371C700.865 628.371 705.365 628.371 707.365 629.371C709.365 630.371 709.365 628.371 709.365 627.871C709.365 627.371 707.865 621.871 706.365 618.871C704.865 615.871 703.865 607.871 705.365 603.371C706.865 598.871 712.365 596.871 715.365 595.871C718.365 594.871 729.365 597.871 731.865 598.871C734.365 599.871 735.365 598.371 735.865 597.871C736.365 597.371 736.865 590.371 737.365 587.371C737.865 584.371 741.365 581.871 742.865 580.871C744.365 579.871 747.365 577.871 751.365 576.871C755.365 575.871 761.365 573.871 764.865 572.371C768.365 570.871 767.865 572.371 769.365 573.371C770.865 574.371 770.865 578.371 773.865 581.371C776.865 584.371 783.865 580.371 785.865 579.371C787.865 578.371 791.365 570.371 793.365 567.871C795.365 565.371 800.865 567.871 802.865 567.871C804.865 567.871 813.365 568.871 816.365 568.371C819.365 567.871 828.365 564.871 836.865 559.871C845.365 554.871 847.865 549.371 850.365 545.371C852.865 541.371 858.365 539.371 863.365 537.371C868.269 535.41 870.287 530.563 872.721 524.717L872.865 524.371C875.365 518.371 878.365 514.371 879.365 512.871C880.365 511.371 884.365 509.371 885.365 507.871C886.365 506.371 891.365 502.371 894.865 500.371C898.365 498.371 901.865 494.871 902.865 494.371C903.865 493.871 908.865 487.871 906.865 487.871C904.865 487.871 902.365 485.371 897.865 483.371C893.365 481.371 885.365 482.371 881.365 482.371C877.365 482.371 866.365 481.371 858.365 476.871C850.365 472.371 837.365 470.371 832.365 468.871C827.365 467.371 812.865 465.371 810.865 464.871C808.865 464.371 806.365 460.371 805.865 455.371C805.365 450.371 801.865 445.371 799.365 444.371C796.865 443.371 783.865 444.871 778.865 446.871C773.865 448.871 768.365 448.371 764.865 445.871C761.365 443.371 753.865 442.871 748.365 442.371C742.865 441.871 738.865 441.871 735.865 442.371C732.865 442.871 723.865 448.371 721.365 449.371C719.365 450.171 711.532 455.371 707.865 457.871C708.032 457.704 708.265 456.871 707.865 454.871C707.365 452.371 700.865 450.871 697.365 449.371C693.865 447.871 699.865 444.371 701.865 442.371C703.865 440.371 701.365 439.371 699.365 438.371C697.365 437.371 693.865 435.871 692.865 434.371C691.865 432.871 693.865 431.371 692.365 430.871C690.865 430.371 690.365 428.871 690.365 425.871C690.365 422.871 690.365 420.871 688.865 418.371C687.365 415.871 687.865 413.371 688.365 412.871C688.865 412.371 690.365 408.871 689.865 408.371C689.365 407.871 687.365 406.371 686.865 403.371C686.365 400.371 686.865 401.371 684.365 399.871C681.865 398.371 680.365 401.871 680.365 402.371C680.365 402.871 679.865 406.371 678.365 406.871C676.865 407.371 676.865 408.371 677.865 410.371C678.865 412.371 678.865 413.371 678.365 414.871C677.865 416.371 676.865 417.371 676.865 418.871C676.865 420.371 679.365 423.871 677.365 424.871C675.365 425.871 675.365 426.871 675.865 428.871C676.365 430.871 675.865 431.371 674.365 431.871C672.865 432.371 672.865 432.371 673.865 435.371C674.865 438.371 667.865 441.371 665.365 443.371C662.865 445.371 665.865 445.871 668.865 449.371C671.865 452.871 663.365 454.371 660.365 455.871C657.965 457.071 655.698 457.704 654.865 457.871C652.365 457.871 649.865 459.371 645.865 459.871C641.865 460.371 637.365 465.871 634.365 471.871C631.365 477.871 625.865 477.871 618.865 481.371C611.865 484.871 599.865 492.871 593.365 498.371C586.865 503.871 567.365 514.371 560.865 517.871C554.365 521.371 546.365 528.871 540.365 532.871C534.365 536.871 533.365 544.871 530.865 549.371C528.365 553.871 528.865 555.871 529.365 557.371C529.865 558.871 537.865 564.871 542.365 566.371C546.865 567.871 547.865 569.371 547.365 570.871C546.865 572.371 543.865 585.371 543.365 592.371C542.865 599.371 543.865 602.371 544.865 606.371C545.865 610.371 537.365 613.371 531.865 616.371C526.365 619.371 524.865 622.371 521.365 625.871C517.865 629.371 520.365 637.871 520.365 640.871C520.365 643.871 522.865 655.871 523.865 662.871C524.865 669.871 527.365 677.371 529.365 682.871C531.365 688.371 531.865 686.871 536.865 691.371C541.865 695.871 566.865 717.371 570.365 719.371C573.865 721.371 593.865 732.371 595.865 732.871C597.865 733.371 608.365 746.871 610.365 749.871C612.365 752.871 608.365 756.871 602.365 759.371C596.365 761.871 598.365 761.371 595.865 767.371C593.365 773.371 598.865 781.371 603.865 786.371C608.865 791.371 610.865 799.371 611.865 803.371Z" stroke="black"/>
</g>
<g clip-path="url(#clip4_1_29)">
<path d="M1187.62 474.074C1187.22 472.874 1178.12 464.907 1173.62 461.074C1172.79 460.741 1170.22 459.974 1166.62 459.574C1162.12 459.074 1159.62 461.074 1157.62 466.574C1155.62 472.074 1153.12 468.574 1146.62 467.574C1140.12 466.574 1137.62 470.574 1132.62 473.074C1127.62 475.574 1124.62 486.574 1124.12 493.074C1123.62 499.574 1119.12 500.574 1116.62 499.074C1114.12 497.574 1110.12 495.074 1107.12 495.074C1104.12 495.074 1099.62 495.574 1098.62 494.074C1097.62 492.574 1091.12 488.074 1089.62 488.574C1088.12 489.074 1084.62 490.074 1082.12 488.574C1079.62 487.074 1073.12 485.074 1065.12 484.074C1057.12 483.074 1053.12 484.074 1045.12 485.074C1037.12 486.074 1032.62 494.074 1030.12 496.574C1027.62 499.074 1023.12 495.574 1016.62 494.074C1010.12 492.574 999.623 494.074 994.623 494.074C989.623 494.074 987.123 500.574 985.623 503.074C984.123 505.574 982.123 503.074 978.123 500.574C974.123 498.074 969.623 497.574 961.623 494.574C953.623 491.574 954.123 496.574 950.623 500.574C947.123 504.574 945.123 500.574 944.123 499.074C943.123 497.574 941.123 497.074 938.123 494.074C935.123 491.074 926.123 489.074 922.123 487.574C918.123 486.074 909.623 487.074 908.123 488.574C906.623 490.074 904.123 495.574 896.623 499.574C889.123 503.574 888.623 506.574 882.123 511.074C875.623 515.574 874.123 525.074 870.623 531.074C867.123 537.074 860.623 538.074 855.623 540.574C850.623 543.074 850.623 548.074 845.623 553.074C840.623 558.074 831.123 563.574 822.123 566.574C813.123 569.574 803.623 567.574 798.123 566.574C792.623 565.574 790.623 573.574 789.123 576.074C787.623 578.574 784.123 581.574 778.123 582.074C772.123 582.574 771.123 574.574 770.623 573.574C770.123 572.574 768.123 570.574 766.623 571.574C765.123 572.574 759.623 575.074 754.123 576.074C748.623 577.074 746.623 578.574 741.623 582.074C736.623 585.574 737.623 594.074 736.623 597.074C735.623 600.074 732.623 598.574 723.123 596.074C713.623 593.574 708.623 599.074 706.623 602.074C704.623 605.074 704.623 614.574 708.123 621.574C711.623 628.574 709.123 630.574 708.123 629.074C707.123 627.574 703.623 628.574 695.623 627.574C687.623 626.574 685.123 629.074 680.123 630.574C675.123 632.074 671.123 635.574 668.123 638.574C665.123 641.574 664.123 648.074 664.623 651.074C665.123 654.074 674.623 656.574 681.123 663.574C687.623 670.574 687.123 669.574 682.123 674.574C677.123 679.574 685.123 688.574 687.623 692.574C690.123 696.574 685.123 704.074 683.123 708.074C681.123 712.074 685.123 715.574 685.123 721.074C685.123 726.574 684.123 732.074 687.123 735.574C690.123 739.074 694.623 736.574 699.623 733.074C704.623 729.574 706.623 732.074 707.623 734.574C708.623 737.074 719.123 744.574 725.123 751.574C731.123 758.574 727.123 763.074 723.123 766.574C719.123 770.074 719.623 779.074 720.623 783.074C721.623 787.074 714.623 788.074 713.623 793.574C712.623 799.074 700.623 802.574 695.623 805.574C690.712 808.521 692.072 818.704 693.069 826.172L693.123 826.574C694.123 834.074 691.123 832.574 684.123 833.574C677.123 834.574 677.123 835.574 672.623 836.074C668.123 836.574 669.623 843.574 668.623 850.074C667.623 856.574 669.623 862.574 668.623 865.574C667.823 867.974 668.289 874.907 668.623 878.074C667.789 878.574 668.123 879.574 676.123 879.574C686.123 879.574 687.123 883.074 694.123 885.574C701.123 888.074 709.623 896.074 720.623 901.074C731.623 906.074 738.623 909.574 749.623 910.074C760.623 910.574 759.123 913.074 765.123 918.574C771.123 924.074 771.623 938.574 772.623 947.074C773.623 955.574 776.623 954.074 781.623 955.074C786.623 956.074 790.123 957.074 797.623 953.074C805.123 949.074 804.123 951.074 811.123 950.574C818.123 950.074 828.623 957.574 834.623 961.074C840.623 964.574 848.623 953.574 851.123 950.574C853.623 947.574 856.623 945.574 857.623 945.574C858.623 945.574 860.123 945.074 867.123 942.574C874.123 940.074 875.623 945.574 878.123 948.074C880.623 950.574 883.123 956.574 889.623 956.574C896.123 956.574 897.623 963.074 901.123 969.574C904.623 976.074 906.123 973.574 908.623 972.574C911.123 971.574 912.623 969.574 919.623 969.574C926.623 969.574 936.623 970.074 947.623 973.074C958.623 976.074 974.623 979.574 979.123 982.074C983.623 984.574 982.623 981.074 984.123 977.574C985.623 974.074 987.623 971.074 989.623 971.074C991.623 971.074 992.123 971.074 995.123 967.574C998.123 964.074 998.123 963.574 1001.12 967.074C1004.12 970.574 1008.62 972.074 1012.12 973.074C1015.62 974.074 1021.62 969.574 1024.62 966.574C1027.62 963.574 1028.62 958.574 1036.62 953.574C1044.62 948.574 1049.12 957.574 1054.12 964.074C1059.12 970.574 1056.12 969.574 1061.62 968.574C1067.12 967.574 1074.12 968.074 1077.62 969.574C1081.12 971.074 1094.62 975.574 1098.12 985.074C1101.62 994.574 1105.62 996.074 1108.12 996.074C1110.62 996.074 1113.62 995.574 1119.12 999.574C1124.62 1003.57 1124.62 1009.07 1124.62 1015.57C1124.62 1022.07 1125.12 1038.07 1124.62 1048.07C1124.12 1058.07 1126.12 1057.57 1129.12 1062.07C1132.12 1066.57 1131.62 1075.07 1131.62 1083.57V1129.57C1131.62 1129.91 1132.22 1129.87 1134.62 1127.07C1137.62 1123.57 1145.62 1121.07 1149.12 1120.07C1152.62 1119.07 1160.12 1108.07 1161.62 1105.07C1163.12 1102.07 1171.62 1091.07 1176.12 1089.57C1180.62 1088.07 1186.12 1075.57 1189.62 1070.57C1193.12 1065.57 1199.62 1054.07 1202.12 1050.57C1204.62 1047.07 1206.12 1040.07 1206.12 1033.57C1206.12 1027.07 1208.62 1023.07 1212.12 1017.07C1215.62 1011.07 1219.62 1004.07 1222.12 999.574C1224.62 995.074 1232.62 977.074 1236.62 969.074C1240.62 961.074 1246.62 944.074 1249.62 937.074C1252.62 930.074 1252.62 928.574 1252.62 917.574V888.074C1252.62 877.074 1253.12 863.574 1252.62 857.574C1252.12 851.574 1247.12 846.574 1243.62 842.574C1240.12 838.574 1229.62 841.574 1226.12 843.574C1222.62 845.574 1212.12 847.574 1206.62 848.574C1201.12 849.574 1200.12 841.574 1200.62 835.574L1200.65 835.274C1201.16 829.198 1202.09 817.992 1200.12 813.074C1198.12 808.074 1198.62 808.074 1200.12 802.074C1201.62 796.074 1207.62 780.074 1211.12 772.574C1214.62 765.074 1214.12 749.074 1213.12 741.074C1212.12 733.074 1215.62 725.574 1217.12 721.074C1218.62 716.574 1220.62 694.574 1219.12 689.074C1217.62 683.574 1219.12 677.574 1219.12 674.574C1219.12 671.574 1218.62 653.074 1219.12 643.574C1219.62 634.074 1218.12 615.074 1218.62 609.574C1219.12 604.074 1217.62 590.574 1218.12 584.574C1218.62 578.574 1216.12 576.074 1214.62 572.574C1213.12 569.074 1207.12 558.074 1202.62 553.574C1198.12 549.074 1200.12 541.074 1200.12 534.574C1200.12 528.074 1199.12 520.074 1200.12 513.074C1201.12 506.074 1199.12 494.574 1197.12 490.574C1195.12 486.574 1188.12 475.574 1187.62 474.074Z" stroke="black"/>
</g>
<g clip-path="url(#clip5_1_29)">
<path d="M174.61 1042.54C181.61 1044.04 179.61 1045.54 180.11 1045.54C180.11 1045.71 180.41 1046.14 181.61 1046.54C183.11 1047.04 187.61 1053.04 189.61 1056.54C191.61 1060.04 191.11 1072.04 193.11 1079.54C195.11 1087.04 203.61 1085.04 210.61 1084.54C217.61 1084.04 223.61 1086.04 229.61 1086.54C235.61 1087.04 241.61 1079.54 247.11 1074.04C252.61 1068.54 269.11 1054.04 271.11 1052.04C273.11 1050.04 285.11 1037.54 289.11 1040.54C293.11 1043.54 291.61 1042.04 294.11 1038.04C296.61 1034.04 305.11 1031.04 309.11 1031.04C313.11 1031.04 321.61 1038.04 327.61 1041.04C333.61 1044.04 339.61 1041.54 343.61 1040.04C347.61 1038.54 347.11 1038.54 350.11 1038.54C353.11 1038.54 360.61 1048.04 362.61 1049.54C364.61 1051.04 372.61 1052.04 373.61 1053.54C374.61 1055.04 374.11 1062.04 374.11 1065.04C374.11 1068.04 376.61 1075.54 377.61 1077.04C378.61 1078.54 379.61 1079.54 380.61 1081.54C381.61 1083.54 384.61 1084.04 387.11 1083.54C389.61 1083.04 402.11 1081.54 406.61 1081.54C411.11 1081.54 415.61 1083.54 425.61 1087.04C433.61 1089.84 437.61 1089.54 438.61 1089.04C437.61 1081.54 435.41 1065.94 434.61 1063.54C433.61 1060.54 439.11 1062.04 442.11 1062.04C445.11 1062.04 444.11 1068.54 446.11 1074.54C448.11 1080.54 448.61 1079.04 450.11 1079.54C451.61 1080.04 453.61 1081.04 455.61 1079.04C457.61 1077.04 459.11 1077.04 461.61 1077.04C464.11 1077.04 462.61 1077.54 468.61 1081.04C474.61 1084.54 478.61 1081.54 479.61 1081.54C480.61 1081.54 495.11 1075.54 496.61 1075.04C498.11 1074.54 511.61 1068.04 518.11 1065.04C524.61 1062.04 523.61 1063.04 529.61 1064.04C535.61 1065.04 536.11 1071.54 538.61 1076.04C541.11 1080.54 542.11 1081.04 548.11 1082.54C554.11 1084.04 562.61 1088.04 564.61 1089.54C566.61 1091.04 566.11 1092.54 566.11 1093.04C566.11 1093.54 566.61 1088.04 567.11 1084.54C567.61 1081.04 565.11 1073.04 564.11 1068.54C563.11 1064.04 566.61 1059.54 568.61 1056.54C570.61 1053.54 576.11 1047.54 578.61 1046.04C581.11 1044.54 586.61 1036.04 588.61 1033.04C590.61 1030.04 591.61 1022.04 591.61 1017.54C591.61 1013.04 588.11 1008.54 584.11 1001.54C580.11 994.541 580.61 993.041 580.61 984.041C580.61 975.041 582.61 973.041 584.61 971.541C586.61 970.041 594.11 961.041 595.61 959.041C597.11 957.041 598.11 947.041 599.11 941.541C600.11 936.041 602.61 934.041 607.11 930.541C611.61 927.041 613.61 924.041 614.61 921.041C615.61 918.041 620.61 913.041 622.11 912.041C623.61 911.041 632.11 903.541 637.11 899.041C642.11 894.541 648.11 891.541 651.11 890.041C654.11 888.541 661.61 884.541 665.11 883.041C668.61 881.541 669.11 882.541 668.61 881.541C668.11 880.541 668.11 876.541 668.11 873.541C668.11 870.541 669.11 866.541 668.61 864.041C668.11 861.541 668.11 855.041 668.61 853.041C669.11 851.041 669.11 846.541 669.11 842.041C669.11 837.541 665.61 836.041 662.11 833.541C658.61 831.041 648.61 834.041 644.11 835.541C639.61 837.041 633.11 837.541 626.61 837.041C620.11 836.541 619.11 833.041 614.61 824.041C610.11 815.041 613.11 819.541 604.61 817.541C596.11 815.541 592.61 820.041 587.11 821.541C581.61 823.041 577.61 830.041 574.61 834.541C571.61 839.041 571.61 841.041 568.61 840.541C565.61 840.041 560.61 838.041 554.61 837.541C548.61 837.041 543.11 838.541 535.61 839.041C528.11 839.541 527.61 837.041 525.61 834.041C523.61 831.041 520.11 822.041 517.61 818.041C515.11 814.041 512.11 814.541 507.61 818.041C503.11 821.541 501.11 823.041 501.11 820.541C501.11 818.041 498.11 812.041 496.11 808.541C494.11 805.041 484.61 797.541 480.11 796.041C475.61 794.541 467.11 795.541 466.11 799.541C465.11 803.541 460.11 810.541 460.11 809.541C460.11 808.541 460.11 802.041 459.11 800.041C458.11 798.041 452.61 800.041 448.61 801.541C444.61 803.041 434.11 814.541 432.11 817.041C430.11 819.541 422.61 819.541 418.11 817.041C413.61 814.541 405.61 815.541 404.11 815.541C402.61 815.541 403.11 806.541 403.11 799.541C403.11 792.541 398.61 791.041 395.61 788.541C392.61 786.041 390.61 786.541 380.11 786.541C369.61 786.541 358.61 797.041 355.11 799.041C351.61 801.041 337.11 807.041 331.61 808.541C326.11 810.041 316.61 822.541 312.61 826.041C308.61 829.541 303.11 825.541 292.61 821.041C282.11 816.541 273.11 819.541 263.61 821.541C254.11 823.541 255.61 831.541 250.61 839.041C245.61 846.541 247.11 861.041 246.61 868.541C246.11 876.041 247.61 880.041 244.61 888.541C241.61 897.041 232.11 897.041 226.11 898.541C220.11 900.041 223.11 904.541 222.11 906.541C221.11 908.541 229.61 913.041 227.61 913.541C225.61 914.041 221.11 923.041 221.11 928.541C221.11 934.041 222.61 938.541 219.11 942.541C215.61 946.541 205.61 946.541 197.61 947.041C189.61 947.541 187.61 950.041 185.11 954.041C182.61 958.041 184.61 984.541 184.61 994.041C184.61 1003.54 180.61 1007.04 172.61 1013.04C164.61 1019.04 163.61 1024.54 162.61 1031.04C161.61 1037.54 167.61 1041.04 174.61 1042.54Z" stroke="black"/>
</g>
<g clip-path="url(#clip6_1_29)">
<path d="M1126.41 1147.71C1128.01 1146.11 1131.08 1135.71 1132.41 1130.71C1132.24 1130.71 1131.91 1130.41 1131.91 1129.21V1105.71C1131.91 1102.21 1131.91 1074.71 1131.41 1069.21C1130.91 1063.71 1126.91 1059.71 1125.41 1057.71C1123.91 1055.71 1124.91 1026.21 1124.91 1017.21C1124.91 1008.31 1123.93 1006.74 1121.49 1002.84L1121.41 1002.71C1118.91 998.707 1114.91 997.707 1108.91 997.207C1102.91 996.707 1100.41 990.207 1098.91 987.207C1097.41 984.207 1093.41 978.207 1090.41 976.707C1087.41 975.207 1078.91 971.207 1074.41 969.707C1069.91 968.207 1062.91 969.707 1059.91 970.207C1056.91 970.707 1057.41 970.207 1051.91 961.707C1046.41 953.207 1045.41 955.707 1041.91 953.707C1038.41 951.707 1034.41 957.207 1032.41 958.207C1030.41 959.207 1026.41 965.707 1021.91 970.207C1017.41 974.707 1013.91 974.707 1011.91 974.207C1009.91 973.707 1002.91 970.707 1000.41 967.207C997.909 963.707 995.909 967.707 995.409 968.707C994.909 969.707 992.409 972.207 990.909 972.207C989.409 972.207 988.409 972.707 986.409 975.207C984.409 977.707 984.409 980.207 982.909 983.207C981.409 986.207 974.909 980.707 971.409 980.207C967.909 979.707 954.909 975.207 945.409 973.207C935.909 971.207 931.409 972.207 927.409 971.207C923.409 970.207 912.409 971.707 911.409 972.707C910.409 973.707 906.909 974.707 904.409 974.707C901.909 974.707 897.409 963.707 895.909 960.707C894.409 957.707 886.909 956.707 885.409 956.707C883.909 956.707 874.409 944.707 872.909 943.207C871.409 941.707 859.909 946.207 855.909 947.707C851.909 949.207 849.409 953.707 844.909 958.707C840.409 963.707 839.409 962.707 835.909 962.207C832.409 961.707 826.409 956.707 820.409 953.707C814.409 950.707 813.409 952.207 806.909 951.707C800.409 951.207 797.909 954.207 793.409 956.207C788.909 958.207 778.909 955.707 775.909 955.207C772.909 954.707 772.909 947.707 771.409 934.207C769.909 920.707 766.409 923.207 762.909 917.207C759.409 911.207 753.409 910.207 746.409 910.707C739.409 911.207 731.409 905.207 727.909 905.207C724.409 905.207 716.409 899.207 713.409 897.707C710.409 896.207 699.909 890.707 695.909 887.707C691.909 884.707 681.409 881.207 677.909 880.707C674.409 880.207 670.909 880.707 666.909 881.207C662.909 881.707 654.909 887.207 648.409 890.207C641.909 893.207 633.909 901.207 626.409 907.207C618.909 913.207 616.909 915.207 614.909 920.207C612.909 925.207 607.909 928.707 603.909 932.207C599.909 935.707 599.909 937.207 598.909 943.207C597.909 949.207 597.409 954.207 596.409 956.707C595.409 959.207 588.909 966.707 584.409 970.707C579.909 974.707 580.909 982.707 580.909 988.707C580.909 994.707 584.409 1001.21 588.909 1007.71C593.409 1014.21 592.409 1020.71 591.409 1025.71C590.409 1030.71 584.409 1040.21 579.909 1043.71C575.409 1047.21 569.409 1053.71 565.909 1060.21C562.409 1066.71 566.409 1073.71 567.409 1079.71C568.409 1085.71 565.909 1095.21 565.409 1101.21C564.909 1107.21 568.409 1109.21 572.909 1115.21C577.409 1121.21 575.409 1125.71 576.409 1135.21C577.409 1144.71 582.409 1147.21 595.909 1153.21C609.409 1159.21 612.909 1164.71 615.409 1167.71C617.909 1170.71 620.409 1174.21 619.909 1183.71C619.409 1193.21 619.909 1196.71 620.409 1206.21C620.909 1215.71 619.409 1267.21 618.909 1272.21C618.509 1276.21 626.742 1277.21 630.909 1277.21C631.242 1276.54 631.909 1277.21 631.909 1285.21C631.909 1295.21 632.909 1299.21 644.909 1301.71C656.909 1304.21 654.909 1304.71 659.409 1307.21C663.909 1309.71 670.909 1312.21 684.409 1311.71C697.909 1311.21 692.909 1311.21 699.909 1307.21C706.909 1303.21 708.409 1294.21 708.409 1292.21V1250.21C711.742 1251.21 719.209 1253.41 722.409 1254.21C726.409 1255.21 739.409 1258.71 747.909 1260.21C756.409 1261.71 764.909 1260.21 777.909 1255.21C790.909 1250.21 795.409 1244.71 799.409 1241.71C803.409 1238.71 812.909 1229.21 818.909 1222.71C824.909 1216.21 831.909 1213.71 836.909 1211.21C841.909 1208.71 849.909 1208.21 856.909 1209.71C863.909 1211.21 875.409 1216.21 881.909 1219.21C888.409 1222.21 897.409 1222.71 901.909 1223.21C906.409 1223.71 912.409 1223.21 915.409 1224.21C918.409 1225.21 934.409 1231.21 940.909 1232.21C947.409 1233.21 964.409 1234.21 970.409 1233.71C976.409 1233.21 997.409 1226.71 1005.41 1225.21C1013.41 1223.71 1032.91 1215.21 1044.41 1211.21C1055.91 1207.21 1080.91 1191.71 1088.91 1186.21C1096.91 1180.71 1108.91 1169.21 1111.91 1167.21C1114.91 1165.21 1124.41 1149.71 1126.41 1147.71Z" stroke="black"/>
</g>
<g clip-path="url(#clip7_1_29)">
<path d="M616.78 1309.47V1275.47H620.78C619.947 1274.97 618.28 1273.57 618.28 1271.97C618.28 1269.97 620.28 1206.47 619.78 1202.47C619.28 1198.47 619.28 1188.47 619.28 1185.47C619.28 1182.47 619.28 1176.97 618.28 1172.97C617.28 1168.97 612.28 1164.47 608.78 1160.97C605.371 1157.56 593.421 1152.25 588.645 1150.13L588.28 1149.97C583.78 1147.97 582.78 1146.47 578.28 1141.97C573.78 1137.47 575.28 1128.97 575.28 1126.47C575.28 1123.97 574.78 1119.97 574.28 1118.47C573.78 1116.97 566.78 1106.97 565.28 1105.97C563.78 1104.97 565.78 1092.97 565.78 1091.97C565.78 1090.97 565.28 1090.47 565.28 1088.97C565.28 1087.47 558.78 1083.97 556.78 1083.47C554.78 1082.97 544.28 1079.97 542.28 1079.47C540.28 1078.97 535.78 1069.47 534.78 1066.97C533.78 1064.47 530.28 1061.97 526.28 1061.47C522.28 1060.97 519.78 1062.47 513.78 1065.47C507.78 1068.47 498.78 1071.97 493.78 1074.47C488.78 1076.97 480.78 1079.47 475.78 1080.97C470.78 1082.47 467.28 1078.47 465.28 1077.47C463.28 1076.47 463.78 1075.47 459.78 1075.47C455.78 1075.47 455.28 1077.47 454.28 1078.47C453.28 1079.47 448.28 1077.97 447.28 1077.47C446.28 1076.97 443.78 1064.97 443.28 1061.97C442.78 1058.97 440.78 1060.47 436.78 1060.47C432.78 1060.47 433.78 1060.97 434.28 1062.97C434.68 1064.57 437.113 1079.97 438.28 1087.47C437.613 1087.47 435.38 1087.37 431.78 1086.97C427.443 1086.49 418.461 1083.22 412.892 1081.19L412.28 1080.97C406.78 1078.97 396.28 1080.47 387.78 1081.97C379.28 1083.47 381.28 1078.97 377.78 1075.97C374.28 1072.97 373.78 1061.47 373.78 1056.97C373.78 1052.47 374.28 1050.47 367.28 1049.47C360.28 1048.47 359.28 1044.47 353.78 1038.97C348.28 1033.47 345.78 1038.97 336.78 1040.47C327.78 1041.97 320.78 1035.97 314.78 1031.97C308.78 1027.97 304.78 1029.47 298.78 1031.97C292.78 1034.47 292.28 1042.97 289.78 1039.97C287.28 1036.97 285.28 1038.97 281.78 1040.97C278.28 1042.97 269.28 1051.97 258.78 1061.47C248.28 1070.97 239.78 1079.47 235.78 1082.97C231.78 1086.47 226.28 1084.97 219.28 1083.47C212.28 1081.97 204.28 1083.47 199.78 1083.47C195.28 1083.47 191.28 1079.97 190.78 1065.97C190.28 1051.97 187.78 1052.97 184.28 1047.97C180.78 1042.97 177.78 1043.97 175.78 1045.47C173.78 1046.97 170.78 1050.47 167.28 1050.47C163.78 1050.47 160.28 1051.47 157.78 1056.47C155.28 1061.47 147.78 1069.47 141.78 1075.97C135.78 1082.47 127.78 1090.97 122.28 1094.97C116.78 1098.97 117.78 1102.97 117.78 1108.47V1154.47C117.78 1165.47 118.78 1168.97 122.28 1175.47C125.78 1181.97 126.28 1183.97 126.28 1189.97C126.28 1195.97 116.28 1196.47 110.78 1197.97C105.28 1199.47 105.28 1204.97 105.28 1206.97C105.28 1208.97 105.78 1239.47 106.28 1245.97C106.68 1251.17 115.447 1256.47 119.78 1258.47C120.113 1258.47 120.18 1259.27 117.78 1262.47C114.78 1266.47 113.28 1272.47 110.78 1279.47C108.28 1286.47 111.28 1293.97 108.28 1297.97C105.28 1301.97 102.78 1304.47 101.28 1317.97C99.7799 1331.47 102.78 1331.97 102.28 1343.47C101.78 1354.97 96.2799 1351.97 93.2799 1355.47C90.8799 1358.27 82.2799 1361.3 78.2799 1362.47V1320.97C78.2799 1316.97 69.7799 1305.47 68.2799 1304.47C66.7799 1303.47 66.7799 1286.97 66.7799 1281.97C66.7799 1276.97 67.2799 1277.47 65.2799 1274.47C63.2799 1271.47 50.2799 1274.47 45.7799 1276.47C41.2799 1278.47 37.2799 1282.97 36.7799 1287.47C36.2799 1291.97 34.2799 1297.97 32.7799 1301.47C31.2799 1304.97 26.7799 1311.47 22.7799 1316.47C18.7799 1321.47 18.7799 1327.97 17.7799 1333.97C16.7799 1339.97 18.7799 1353.97 18.7799 1365.47C18.7799 1376.97 21.2799 1375.47 24.2799 1378.97C27.2799 1382.47 38.7799 1387.47 46.2799 1388.47C52.2799 1389.27 59.7799 1388.8 62.7799 1388.47C63.4465 1391.97 64.8799 1399.77 65.2799 1402.97C65.7799 1406.97 65.2799 1421.47 67.2799 1426.47C69.2799 1431.47 76.7799 1435.97 86.7799 1440.47C96.7799 1444.97 102.78 1444.97 112.28 1445.97C121.78 1446.97 128.28 1441.97 134.28 1436.97C140.28 1431.97 143.78 1426.97 143.78 1420.97V1395.47C143.78 1395.14 144.38 1394.57 146.78 1394.97C149.78 1395.47 154.78 1398.97 159.28 1400.97C163.78 1402.97 170.28 1410.97 171.78 1415.47C173.28 1419.97 177.28 1429.47 181.28 1434.97C185.28 1440.47 190.78 1438.97 198.28 1439.47C205.78 1439.97 218.78 1437.47 228.28 1436.97C237.78 1436.47 239.78 1425.47 244.78 1423.47C249.78 1421.47 252.78 1417.47 255.78 1414.47C258.78 1411.47 266.78 1401.47 271.78 1395.97C275.78 1391.57 279.78 1391.47 281.28 1391.97C281.613 1391.8 281.98 1391.77 280.78 1392.97C279.28 1394.47 280.78 1402.97 280.78 1414.47C280.78 1425.97 280.78 1427.97 289.78 1432.97C298.78 1437.97 307.78 1432.97 311.28 1431.47C314.78 1429.97 321.28 1417.97 323.28 1412.47C325.28 1406.97 328.78 1404.47 333.28 1401.47C337.78 1398.47 342.28 1393.47 348.78 1385.47C355.28 1377.47 358.78 1374.47 364.28 1368.47C369.78 1362.47 375.28 1357.97 377.78 1356.47C380.28 1354.97 396.78 1353.97 399.28 1353.97C401.28 1353.97 406.447 1352.64 408.78 1351.97C408.78 1356.3 409.58 1366.17 412.78 1370.97C416.78 1376.97 423.28 1376.47 429.78 1376.47C436.28 1376.47 444.78 1374.47 456.78 1371.97C468.78 1369.47 475.78 1364.97 492.28 1357.47C508.78 1349.97 507.28 1347.97 508.78 1344.97C510.28 1341.97 509.28 1329.47 509.28 1323.47C509.28 1318.67 507.947 1315.14 507.28 1313.97C509.78 1313.3 515.38 1311.77 517.78 1310.97C520.78 1309.97 542.78 1309.97 543.28 1316.97C543.78 1323.97 549.78 1328.47 554.78 1330.47C559.78 1332.47 570.28 1331.47 579.78 1328.47C589.28 1325.47 588.28 1327.97 595.78 1328.47C603.28 1328.97 606.78 1327.97 610.78 1325.97C614.78 1323.97 616.78 1313.97 616.78 1309.47Z" stroke="black"/>
</g>
<g clip-path="url(#clip8_1_29)">
<path d="M578.875 1500.72C572.475 1497.52 556.542 1493.06 549.375 1491.22C547.208 1490.72 541.275 1489.42 534.875 1488.22C526.875 1486.72 516.875 1486.22 509.375 1484.72C501.875 1483.22 489.875 1483.22 480.375 1483.22C470.875 1483.22 464.375 1485.72 457.875 1486.72C452.675 1487.52 445.042 1491.39 441.875 1493.22V1485.22C441.875 1480.72 439.375 1479.72 438.375 1477.72C437.375 1475.72 434.875 1473.22 432.875 1472.72C430.875 1472.22 431.875 1471.22 431.375 1469.22C430.875 1467.22 429.375 1465.72 427.875 1463.72C426.375 1461.72 424.875 1459.72 423.375 1458.22C421.875 1456.72 417.375 1454.22 416.375 1453.72C415.375 1453.22 410.875 1453.72 406.375 1453.72C401.875 1453.72 400.875 1455.22 396.875 1458.22C392.875 1461.22 389.375 1466.22 388.875 1468.72C388.375 1471.22 387.375 1474.22 385.875 1473.72C384.375 1473.22 383.875 1479.72 384.375 1480.72C384.875 1481.72 381.375 1482.22 379.875 1482.22C378.375 1482.22 379.875 1491.72 379.375 1493.72C378.975 1495.32 382.208 1497.72 383.875 1498.72V1501.22C383.542 1501.22 382.275 1501.32 379.875 1501.72C376.875 1502.22 377.375 1512.22 375.875 1512.72C374.375 1513.22 370.875 1518.72 370.375 1520.22C369.875 1521.72 368.875 1521.22 366.375 1522.22C363.875 1523.22 348.875 1532.72 344.375 1535.22C339.875 1537.72 321.375 1549.72 317.875 1551.72C314.375 1553.72 304.375 1562.72 297.875 1569.22C291.375 1575.72 288.375 1585.72 285.375 1591.72C282.375 1597.72 283.875 1611.72 283.875 1615.72V1663.72C283.875 1672.22 289.375 1676.72 290.875 1681.22C292.375 1685.72 303.875 1697.22 311.875 1705.22C319.875 1713.22 334.375 1717.72 339.375 1720.22C344.375 1722.72 358.875 1727.22 369.875 1728.22C380.875 1729.22 398.375 1734.72 410.375 1736.72C422.375 1738.72 434.875 1739.22 456.875 1740.22C478.875 1741.22 481.375 1739.22 500.875 1736.72C520.375 1734.22 527.875 1731.22 538.875 1729.22C549.875 1727.22 565.875 1720.22 573.875 1717.22C581.875 1714.22 590.375 1709.72 596.375 1706.72C602.375 1703.72 612.375 1696.72 621.375 1690.72C630.375 1684.72 640.875 1670.72 646.875 1663.22C652.875 1655.72 655.375 1645.72 656.375 1638.72C657.375 1631.72 655.875 1598.72 655.875 1585.22C655.875 1571.72 654.875 1572.72 651.875 1563.22C648.875 1553.72 643.875 1550.22 635.375 1539.22C626.875 1528.22 620.375 1526.22 607.875 1516.22C595.375 1506.22 586.875 1504.72 578.875 1500.72Z" stroke="black"/>
</g>
<path d="M482 170.5C484 169.7 492.833 167.833 497 167C496.833 167.5 496.5 168.9 496.5 170.5C496.5 172.5 497 179 497.5 184C498 189 500.5 191 505 194.5C509.5 198 520.5 201 525 201.5C529.5 202 535.5 200.5 541 201.5C546.5 202.5 550.5 206.5 553.5 212.5C556.5 218.5 556.5 217 561 219C565.5 221 575 219.5 584 221C593 222.5 590.5 226.5 590.5 230C590.5 233.5 587.5 236.5 596.5 239.5C605.5 242.5 607.5 243.5 611 247.5C614.5 251.5 613 259.5 614.5 262.5C616 265.5 617 266.5 616.5 269.5C616 272.5 611.5 274.5 610.5 280C609.5 285.5 610 296.5 611 301C612 305.5 613 314.5 613.5 320.5C614 326.5 614 331.5 616.5 336C619 340.5 623.5 343 632.5 346C641.5 349 657 359 662 363.5C667 368 663 370 661.5 374C660 378 660 384.5 661.5 388C663 391.5 666 400 667.5 406.5C669 413 663.5 426 661.5 432C659.5 438 656 445.5 655 451C654.2 455.4 656.333 457.834 657.5 458.5L647.5 461C641.5 462.5 643 463.5 640.5 466.5C638 469.5 634.5 475 632.5 477C630.5 479 624 480.5 614 486C604 491.5 601 494.5 596 499C591 503.5 584 507 573.5 513C563 519 557 522.5 550.5 527.5C544 532.5 542 534 539 537C536.6 539.4 534.667 545 534 547.5C533.833 547.834 532.7 548 529.5 546C525.5 543.5 519.5 543.5 513.5 542.5C507.5 541.5 503.5 540.5 499 539C494.5 537.5 483 529 476.5 527C470 525 467 525.5 460 527C453 528.5 442 533.5 438 535.5C434 537.5 424.5 542 415 541C405.608 540.012 398.659 542.444 388.839 545.882L388.5 546C378.5 549.5 377 548 368.5 542.5C360 537 359.5 538 356.5 537.5C353.5 537 351 531 351.5 526.5C352 522 351 519 350 517C349 515 345 511 342.5 506C340 501 338 499 335 496.5C332 494 327 487 326 485C325 483 321.5 474.5 318.5 470.5C315.5 466.5 308 452 307.5 451C307 450 307 448 309 444C311 440 309 438.5 305.5 435.5C302 432.5 304 431 303.5 423C303 415 303 416.5 296.5 416C290 415.5 289 418.5 283 416.5C277 414.5 276.5 413.5 270 413.5C263.5 413.5 261.5 413.5 255.5 408.5C249.5 403.5 242.5 390.5 239.5 388C236.5 385.5 232.5 374.5 231 374.5C229.5 374.5 226 371 222 368C218 365 217 361 217 355C217 349 218 313.5 218 308C218 302.5 217 302.5 219.5 299.5C222 296.5 220 293 224.5 284.5C229 276 239.5 277 248.5 275.5C257.5 274 269.5 276 276.5 276.5C283.5 277 294.5 285.5 297.5 291C300.5 296.5 300 296 306.5 295.5C313 295 328 290 334.5 288C341 286 351.5 275 356 269C360.5 263 369.5 252 375 246.5C380.5 241 388.5 235 395.5 231C402.5 227 413 219 415.5 217C418 215 424.5 208 424.5 209C424.5 210 424 216.5 425.5 221.5C427 226.5 431 228.5 438 231.5C445 234.5 442 234.5 442 238.5V269C442 277.5 441.5 282.5 440 283C438.5 283.5 434 287.5 433 290C432 292.5 433.5 299 434.5 300.5C435.5 302 437 304 434.5 306C432 308 432.5 310.5 433 313C433.5 315.5 437 320.5 439 322.5C441 324.5 440 325 436.5 326C433 327 429 330 422 333C415 336 413.5 341 411.5 345C409.5 349 402.5 348 393.5 348.5C384.5 349 384.5 352.5 382 351C379.5 349.5 376 348.5 369 348.5C362 348.5 353 356.5 350 359.5C347 362.5 347.5 368.5 348 373C348.5 377.5 355.5 381.5 360.5 383C365.5 384.5 365 388.5 363.5 392.5C362 396.5 361.5 405.5 362.5 409C363.5 412.5 374 413 376 413C378 413 386.5 411 389 410.5C391.5 410 391.5 417.5 392.5 419.5C393.5 421.5 403.5 422.5 411 421.5C418.5 420.5 415.5 420.5 418.5 422.5C421.5 424.5 425 423.5 431 422.5C437 421.5 449 417 452.5 416.5C455.3 416.1 458.333 415.334 459.5 415C459.5 415.667 460 417.8 462 421C464.5 425 471.5 425 475.5 425.5C479.5 426 486.5 423 489 421.5C491.5 420 505.5 415 510 413.5C514.5 412 514.5 410.5 515 409C515.5 407.5 516.5 407.5 520.5 403.5C524.5 399.5 524 396.5 524 389.5C524 382.5 526 383 527 382C528 381 536 374 537 370C538 366 536.5 363.5 534.5 359.5C532.5 355.5 525 355 519.5 354.5C514 354 512 353 511.5 351C511 349 512 345.5 512.5 342C513 338.5 513 330.5 513 326C513 321.5 507 323 504.5 323.5C502 324 493.5 325 492 323C490.5 321 491 321.5 484.5 320.5C478 319.5 477.5 322.5 475 323.5C472.5 324.5 470.5 326 469 326C467.5 326 467 324 467 322.5C467 321 468.5 320 470.5 318.5C472.5 317 473.5 314 474 310.5C474.5 307 472 305.5 471.5 304C471 302.5 471 301 473 299C475 297 473.5 295.5 473.5 291.5C473.5 287.5 469 285 467 284C465 283 465 275 465 271C465 267 464.5 260.5 464.5 257.5V236.5C464.5 233.5 465 233.5 467 233C469 232.5 474 229.5 477 227.5C480 225.5 481.5 218 482 215.5C482.5 213 482 200.5 481.5 194.5C481 188.5 478 186 477 185C476 184 478 176.5 477.5 174C477 171.5 479.5 171.5 482 170.5Z" stroke="black"/>
<defs>
<clipPath id="clip0_1_29">
<rect width="679" height="458" fill="white" transform="translate(495 49)"/>
</clipPath>
<clipPath id="clip1_1_29">
<rect width="191" height="389" fill="white" transform="translate(347 37)"/>
</clipPath>
<clipPath id="clip2_1_29">
<rect width="466" height="422" fill="white" transform="translate(151 422)"/>
</clipPath>
<clipPath id="clip3_1_29">
<rect width="389" height="441" fill="white" transform="translate(519 399)"/>
</clipPath>
<clipPath id="clip4_1_29">
<rect width="590" height="672" fill="white" transform="translate(664 459)"/>
</clipPath>
<clipPath id="clip5_1_29">
<rect width="508" height="308" fill="white" transform="translate(162 786)"/>
</clipPath>
<clipPath id="clip6_1_29">
<rect width="570" height="433" fill="white" transform="translate(564 880)"/>
</clipPath>
<clipPath id="clip7_1_29">
<rect width="606" height="418" fill="white" transform="translate(17 1029)"/>
</clipPath>
<clipPath id="clip8_1_29">
<rect width="375" height="288" fill="white" transform="translate(283 1453)"/>
</clipPath>
</defs>
</svg>
